<svg width="166" height="166" viewBox="0 0 166 166" fill="none" xmlns="http://www.w3.org/2000/svg"><path fill-rule="evenodd" clip-rule="evenodd" d="m162.545 106.456-6.221-13.605L166 81.469l-10.223-38.152-14.018-5.221-1.208-14.891-34.206-19.749-13.604 6.22L81.357 0 43.205 10.223 37.93 24.39l-15.05 1.43L3.13 60.026l6.4 13.5L0 85.056l10.223 38.152 14.071 5.021 1.415 14.892 34.206 19.749 13.5-6.4 11.53 9.53 38.152-10.223 4.968-13.92 14.731-1.195zm-62.906 38.609c34.217-9.169 54.523-44.339 45.355-78.556s-44.339-54.523-78.556-45.355-54.523 44.34-45.355 78.557 44.34 54.522 78.556 45.354" fill="#000"/><path d="M78.85 30.644c-27.11 2.05-48.467 24.695-48.467 52.328 0 8.286 1.92 16.123 5.34 23.091l15.472-8.933a34.6 34.6 0 0 1-3.013-14.158c0-17.795 13.404-32.46 30.667-34.45zM54.427 102.83l-15.455 8.923c9.379 14.274 25.534 23.698 43.89 23.698 18.091 0 34.044-9.155 43.48-23.084l-15.477-8.935c-6.309 8.62-16.502 14.219-28.004 14.219-11.766 0-22.164-5.86-28.434-14.821m80.913-19.858a52.3 52.3 0 0 1-5.669 23.751l-15.452-8.922a34.54 34.54 0 0 0 3.321-14.829c0-18.298-14.172-33.286-32.138-34.587V30.554c27.803 1.325 49.938 24.287 49.938 52.418" fill="#000"/><path d="M110.482 83.384a2.22 2.22 0 0 0-1.109-1.946l-14.224-8.215a2.217 2.217 0 1 0-2.217 3.84l10.943 6.32-10.943 6.32a2.218 2.218 0 0 0 2.217 3.842l14.224-8.215a2.22 2.22 0 0 0 1.109-1.946m-54.934 0a2.22 2.22 0 0 1 1.109-1.946l14.223-8.215a2.217 2.217 0 1 1 2.217 3.84l-10.942 6.32 10.942 6.32a2.218 2.218 0 0 1-2.217 3.842L56.657 85.33a2.22 2.22 0 0 1-1.109-1.946m34.663-16.905a2.216 2.216 0 1 1 3.84 2.217l-18.29 31.69a2.216 2.216 0 1 1-3.84-2.218z" fill="#000"/></svg>
