<svg width="166" height="166" viewBox="0 0 166 166" fill="none" xmlns="http://www.w3.org/2000/svg">
<path fill-rule="evenodd" clip-rule="evenodd" d="M162.545 106.456L156.324 92.8515L166 81.4676L155.777 43.3161L141.759 38.095L140.551 23.2037L106.345 3.45496L92.7408 9.67572L81.3569 0L43.2053 10.2227L37.9289 24.39L22.8788 25.8198L3.13008 60.0256L9.52979 73.526L0 85.0567L10.2227 123.208L24.2942 128.229L25.709 143.121L59.9148 162.87L73.4152 156.47L84.9459 166L123.097 155.777L128.065 141.857L142.796 140.662L162.545 106.456ZM99.6394 145.065C133.856 135.896 154.162 100.726 144.994 66.5088C135.825 32.2919 100.655 11.986 66.4377 21.1544C32.2208 30.3228 11.9149 65.4936 21.0833 99.7105C30.2517 133.927 65.4225 154.233 99.6394 145.065Z" fill="white"/>
<path d="M78.8492 30.6444C51.7405 32.6939 30.3826 55.3388 30.3826 82.9721C30.3826 91.2578 32.3028 99.0949 35.7224 106.063L51.1946 97.13C49.2589 92.807 48.1824 88.0153 48.1824 82.9721C48.1824 65.1765 61.5865 50.5115 78.8492 48.5228V30.6444Z" fill="white"/>
<path d="M54.4272 102.83L38.9718 111.753C48.351 126.027 64.5056 135.451 82.8614 135.451C100.953 135.451 116.906 126.296 126.342 112.367L110.865 103.432C104.556 112.052 94.3626 117.651 82.8614 117.651C71.0949 117.651 60.6971 111.791 54.4272 102.83Z" fill="white"/>
<path d="M135.34 82.9721C135.34 91.5203 133.296 99.5911 129.671 106.723L114.219 97.8013C116.349 93.3052 117.54 88.2778 117.54 82.9721C117.54 64.6739 103.368 49.6857 85.4019 48.3848V30.5538C113.205 31.879 135.34 54.8406 135.34 82.9721Z" fill="white"/>
<path d="M110.482 83.3838C110.49 82.6092 110.091 81.8528 109.373 81.4379L95.1492 73.2228C94.0887 72.6103 92.7327 72.9737 92.1206 74.0343C91.5084 75.095 91.8718 76.4514 92.9323 77.0639L103.875 83.3838L92.9323 89.7037C91.8718 90.3162 91.5084 91.6726 92.1206 92.7333C92.7327 93.794 94.0887 94.1573 95.1492 93.5448L109.373 85.3298C110.091 84.9148 110.49 84.1584 110.482 83.3838Z" fill="white"/>
<path d="M55.548 83.3838C55.54 82.6092 55.9385 81.8528 56.657 81.4379L70.8804 73.2228C71.9409 72.6103 73.2969 72.9737 73.909 74.0343C74.5212 75.095 74.1577 76.4514 73.0972 77.0639L62.155 83.3838L73.0972 89.7037C74.1577 90.3162 74.5212 91.6726 73.909 92.7333C73.2969 93.794 71.9409 94.1573 70.8804 93.5448L56.657 85.3298C55.9385 84.9148 55.54 84.1584 55.548 83.3838Z" fill="white"/>
<path d="M90.2112 66.4787C90.8232 65.4182 92.1789 65.0549 93.2392 65.6673C94.2995 66.2797 94.6629 67.6358 94.0508 68.6963L75.7616 100.386C75.1495 101.447 73.7938 101.81 72.7335 101.198C71.6733 100.585 71.3099 99.229 71.9219 98.1685L90.2112 66.4787Z" fill="white"/>
</svg>
